HIERARCHY
ROOT Hips
{
	OFFSET 0.00000 0.00000 0.00000
	CHANNELS 6 Xposition Yposition Zposition Zrotation Yrotation Xrotation 
	JOINT LHipJoint
	{
		OFFSET 0 0 0
		CHANNELS 3 Zrotation Yrotation Xrotation
		JOINT LeftUpLeg
		{
			OFFSET 1.37590 -1.78394 0.89329
			CHANNELS 3 Zrotation Yrotation Xrotation
			JOINT LeftLeg
			{
				OFFSET 2.47928 -6.81178 0.00000
				CHANNELS 3 Zrotation Yrotation Xrotation
				JOINT LeftFoot
				{
					OFFSET 2.63345 -7.23535 0.00000
					CHANNELS 3 Zrotation Yrotation Xrotation
					JOINT LeftToeBase
					{
						OFFSET 0.23938 -0.65768 2.27012
						CHANNELS 3 Zrotation Yrotation Xrotation
						End Site
						{
							OFFSET 0.00000 -0.00000 1.18363
						}
					}
				}
			}
		}
	}
	JOINT RHipJoint
	{
		OFFSET 0 0 0
		CHANNELS 3 Zrotation Yrotation Xrotation
		JOINT RightUpLeg
		{
			OFFSET -1.33617 -1.78394 0.89329
			CHANNELS 3 Zrotation Yrotation Xrotation
			JOINT RightLeg
			{
				OFFSET -2.56922 -7.05888 0.00000
				CHANNELS 3 Zrotation Yrotation Xrotation
				JOINT RightFoot
				{
					OFFSET -2.56568 -7.04915 0.00000
					CHANNELS 3 Zrotation Yrotation Xrotation
					JOINT RightToeBase
					{
						OFFSET -0.27533 -0.75646 2.18105
						CHANNELS 3 Zrotation Yrotation Xrotation
						End Site
						{
							OFFSET -0.00000 -0.00000 1.15233
						}
					}
				}
			}
		}
	}
	JOINT LowerBack
	{
		OFFSET 0 0 0
		CHANNELS 3 Zrotation Yrotation Xrotation
		JOINT Spine
		{
			OFFSET 0.06190 2.15152 -0.00935
			CHANNELS 3 Zrotation Yrotation Xrotation
			JOINT Spine1
			{
				OFFSET 0.06334 2.15332 0.00872
				CHANNELS 3 Zrotation Yrotation Xrotation
				JOINT Neck
				{
					OFFSET 0 0 0
					CHANNELS 3 Zrotation Yrotation Xrotation
					JOINT Neck1
					{
						OFFSET -0.04202 1.66908 0.23524
						CHANNELS 3 Zrotation Yrotation Xrotation
						JOINT Head
						{
							OFFSET 0.07510 1.69357 -0.24440
							CHANNELS 3 Zrotation Yrotation Xrotation
							End Site
							{
								OFFSET 0.02556 1.71719 -0.11000
							}
						}
					}
				}
				JOINT LeftShoulder
				{
					OFFSET 0 0 0
					CHANNELS 3 Zrotation Yrotation Xrotation
					JOINT LeftArm
					{
						OFFSET 3.67168 1.26306 -0.41342
						CHANNELS 3 Zrotation Yrotation Xrotation
						JOINT LeftForeArm
						{
							OFFSET 4.68510 -0.00000 -0.00000
							CHANNELS 3 Zrotation Yrotation Xrotation
							JOINT LeftHand
							{
								OFFSET 3.39626 -0.00000 -0.00000
								CHANNELS 3 Zrotation Yrotation Xrotation
								JOINT LeftFingerBase
								{
									OFFSET 0 0 0
									CHANNELS 3 Zrotation Yrotation Xrotation
									JOINT LeftHandIndex1
									{
										OFFSET 0.48608 -0.00000 -0.00000
										CHANNELS 3 Zrotation Yrotation Xrotation
										End Site
										{
											OFFSET 0.39189 -0.00000 -0.00000
										}
									}
								}
								JOINT LThumb
								{
									OFFSET 0 0 0
									CHANNELS 3 Zrotation Yrotation Xrotation
									End Site
									{
										OFFSET 0.39787 -0.00000 0.39787
									}
								}
							}
						}
					}
				}
				JOINT RightShoulder
				{
					OFFSET 0 0 0
					CHANNELS 3 Zrotation Yrotation Xrotation
					JOINT RightArm
					{
						OFFSET -3.04136 1.42992 -0.76390
						CHANNELS 3 Zrotation Yrotation Xrotation
						JOINT RightForeArm
						{
							OFFSET -5.55576 -0.00000 -0.00000
							CHANNELS 3 Zrotation Yrotation Xrotation
							JOINT RightHand
							{
								OFFSET -3.32774 -0.00000 -0.00000
								CHANNELS 3 Zrotation Yrotation Xrotation
								JOINT RightFingerBase
								{
									OFFSET 0 0 0
									CHANNELS 3 Zrotation Yrotation Xrotation
									JOINT RightHandIndex1
									{
										OFFSET -0.50763 -0.00000 -0.00000
										CHANNELS 3 Zrotation Yrotation Xrotation
										End Site
										{
											OFFSET -0.40926 -0.00000 -0.00000
										}
									}
								}
								JOINT RThumb
								{
									OFFSET 0 0 0
									CHANNELS 3 Zrotation Yrotation Xrotation
									End Site
									{
										OFFSET -0.41551 -0.00000 0.41551
									}
								}
							}
						}
					}
				}
			}
		}
	}
}
MOTION
Frames: 16
Frame Time: 0.0465116
0.00 0.00 0.00 0 0 0 0 0 0 -21 0 0 0 0 0 0 0 0 0 0 0 0 0 0 21 0 0 0 0 0 0 0 0 0 0 0 0 0 0 0 0 0 0 0 0 0 0 -16 0 0 21 0 0 11 0 0 0 -8 0 0 0 0 0 0 0 0 0 0 0 0 0 0 0 0 0 0 0 0 8 0 0 0 0 0 0 0 0 0 0 0 0 0 0 0 0 0
0.00 0.00 0.00 -83.3165 -88.7850 90.3350 0.0000 0.0000 0.0000 -22.4696 -3.9595 -0.4969 0.4107 4.1139 11.3974 0.4688 -6.0537 -12.2761 0.0082 -0.5858 -1.6097 0.0000 0.0000 0.0000 17.2630 5.6627 -36.5176 -4.1029 -12.2961 36.7877 0.8494 -16.9193 -12.0587 -0.1620 -2.5934 7.1488 -2.2858 -1.9166 -0.4843 1.7758 -2.5759 -2.5024 3.1381 -1.2373 -2.1165 -4.4076 -2.9228 -13.3169 1.9336 -3.3570 9.9481 1.0356 -1.6756 5.2790 -0.0000 0.0000 0.0000 -87.8947 -28.9922 18.2128 38.8367 -47.3654 -17.5786 -0.0000 0.0000 -53.6531 21.9357 45.0147 15.8991 -7.1250 0.0000 -0.0000 -31.6154 75.2725 -23.0397 -0.0000 0.0000 0.0000 68.0920 22.7634 32.3488 -70.0500 58.4414 -42.8132 0.0000 -0.0000 -2.7420 -17.5624 -30.3508 9.0860 7.1250 -0.0000 -0.0000 16.1706 -60.8091 -6.3256
0.00 0.00 0.00 -38.4742 -88.7663 46.8909 0.0000 0.0000 0.0000 -22.8717 -2.7935 0.8487 0.3996 4.0587 11.2417 0.5957 -7.7632 -13.9769 0.0013 -0.2328 -0.6397 0.0000 0.0000 0.0000 16.4837 8.3964 -35.2679 -1.1807 -6.8961 19.4080 0.9291 -16.7880 -7.1307 -0.1441 -2.4465 6.7413 -2.5545 -2.1970 -1.2924 1.8696 -2.9392 -2.5499 3.3533 -1.4226 -1.6689 -4.7643 -3.2772 -13.6021 3.0472 -3.8351 6.5509 1.4136 -1.8355 4.3129 0.0000 -0.0000 0.0000 -89.1295 -26.7423 18.5632 40.6204 -48.4332 -18.9021 -0.0000 0.0000 -51.2548 21.0044 43.2539 14.7403 -7.1250 0.0000 -0.0000 -28.5340 73.5380 -19.6867 0.0000 -0.0000 0.0000 70.3609 20.4756 29.4783 -73.1454 58.8989 -45.4575 0.0000 -0.0000 -4.7711 -20.3658 -31.7051 11.0393 7.1250 -0.0000 -0.0000 14.0496 -62.8248 -6.1455
0.00 0.00 0.00 -28.6053 -84.3250 36.3889 0.0000 0.0000 0.0000 -18.1330 -2.6737 5.3712 2.1168 9.1053 26.1252 -0.2273 -10.7096 -3.1482 0.5802 -4.8776 -13.5598 0.0000 0.0000 0.0000 20.3216 13.6859 -31.2738 -1.7855 -8.4042 23.9487 0.4713 -12.4307 -1.3602 -1.1325 -6.7588 19.0028 -0.0991 -2.8637 -1.6977 3.6323 -3.8467 -3.0642 3.7890 -1.9172 -1.9417 -5.0008 -2.9304 -13.7176 0.2632 -3.0351 8.4741 0.6384 -1.6421 4.8584 -0.0000 0.0000 0.0000 -89.4867 -12.6653 19.7528 41.4855 -48.9258 -19.5518 -0.0000 0.0000 -39.9952 18.0657 40.6769 12.0028 -7.1250 0.0000 -0.0000 -27.1539 70.3865 -16.8694 -0.0000 0.0000 0.0000 74.9181 9.3679 14.2609 -55.0056 54.8251 -30.2206 0.0000 -0.0000 -13.9668 -21.9214 -38.1736 13.9672 7.1250 -0.0000 -0.0000 18.7049 -69.4267 -11.0755
0.00 0.00 0.00 -35.8131 -81.0421 42.8635 0.0000 0.0000 0.0000 -12.7568 -4.2980 -0.0398 4.2490 12.4846 37.4687 0.0713 -7.8455 12.5678 0.5031 -4.5469 -12.6206 0.0000 0.0000 0.0000 25.1170 12.1811 -26.1441 -1.7520 -8.3291 23.7182 0.4958 -12.4154 -5.8266 -1.1113 -6.6974 18.8220 2.1048 -2.8460 -1.7182 4.7017 -3.8414 -3.5058 3.6853 -1.9666 -2.4603 -5.6276 -3.2209 -12.8920 -0.6679 -3.2533 9.6507 0.4317 -1.8593 5.0946 -0.0000 -0.0000 0.0000 -89.5982 -7.5737 22.2884 40.3758 -48.2910 -18.7193 -0.0000 0.0000 -40.7375 22.9247 43.4484 16.2169 -7.1250 0.0000 -0.0000 -26.5536 74.4002 -18.7482 -0.0000 -0.0000 0.0000 76.8701 4.1723 9.8098 -55.3530 54.9388 -30.5047 0.0000 -0.0000 -14.8115 -21.9483 -38.9886 14.2269 7.1250 -0.0000 -0.0000 19.7882 -70.1805 -12.0645
0.00 0.00 0.00 -43.5015 -78.2463 48.9401 0.0000 0.0000 0.0000 -7.3590 -6.6563 -9.9982 8.5481 16.5080 54.5139 0.2262 -6.3009 13.4456 0.4042 -4.0818 -11.3068 0.0000 0.0000 0.0000 31.0653 9.3517 -17.4983 -1.3328 -7.3105 20.6386 0.3777 -11.9511 -9.8358 -0.9073 -6.0699 16.9874 4.6967 -2.0249 -1.5482 5.3990 -2.7838 -2.9652 2.9520 -1.4977 -2.1405 -6.2385 -4.1092 -12.3339 -0.7120 -4.3727 10.2946 0.4233 -2.4473 5.2453 -0.0000 0.0000 0.0000 -90.1088 -2.1710 24.1685 43.9839 -50.2609 -21.4545 -0.0000 0.0000 -39.4429 18.8117 42.3918 12.9347 -7.1250 0.0000 -0.0000 -29.3902 72.0602 -19.3890 -0.0000 0.0000 0.0000 80.7447 -1.4021 5.5767 -60.5026 56.4424 -34.7596 0.0000 -0.0000 -16.0076 -22.9388 -38.7708 14.8433 7.1250 -0.0000 -0.0000 18.2179 -70.3046 -11.1348
0.00 0.00 0.00 -54.4107 -79.1638 59.1034 0.0000 0.0000 0.0000 -4.9136 -7.6048 -24.7180 10.6153 17.7416 61.5257 0.0072 -2.5810 -2.2432 0.5354 -4.6884 -13.0220 0.0000 0.0000 0.0000 34.3630 6.2289 -6.4835 -0.6758 -5.2567 14.6422 0.0675 -9.6450 -12.5233 -0.7870 -5.6633 15.8105 5.6435 -0.2213 -1.7887 4.6486 -0.4338 -2.2207 1.6228 -0.3174 -1.2870 -7.2685 -5.0702 -12.1826 0.5643 -5.6550 11.3389 0.8627 -3.0421 5.6503 -0.0000 -0.0000 0.0000 -90.8366 4.7384 21.7860 53.2658 -54.2306 -28.8036 -0.0000 0.0000 -35.6210 18.2298 41.6053 12.3360 -7.1250 0.0000 -0.0000 -28.5854 71.2163 -18.3171 -0.0000 -0.0000 0.0000 83.6466 -2.4637 9.5449 -59.0057 56.0391 -33.5151 0.0000 -0.0000 -16.6123 -23.4825 -39.0782 15.3160 7.1250 -0.0000 -0.0000 17.9446 -70.7664 -11.1468
0.00 0.00 0.00 -69.6281 -79.6639 75.4157 0.0000 0.0000 0.0000 -3.1174 -8.5229 -32.9702 6.5621 14.9518 47.1979 0.2306 -0.5073 -8.9036 0.6837 -5.2867 -14.7281 0.0000 0.0000 0.0000 36.2458 5.4999 -1.2367 -0.5245 -4.6413 12.8883 -0.2148 -7.7806 -14.8027 -0.5314 -4.6710 12.9727 7.2381 1.0882 -1.6278 3.7688 1.3338 -2.4322 -0.1588 0.5288 -1.5219 -7.4938 -5.0310 -11.6929 0.7390 -5.6268 10.9841 0.9715 -3.0205 5.4676 0.0000 -0.0000 0.0000 -90.4645 8.0857 19.9522 57.4162 -55.5812 -32.2003 -0.0000 0.0000 -30.7592 20.2256 41.8975 13.8226 -7.1250 0.0000 -0.0000 -26.7363 72.1439 -17.6105 0.0000 -0.0000 0.0000 82.9649 -0.1819 20.0977 -55.9029 55.1155 -30.9553 0.0000 -0.0000 -15.1067 -23.8807 -38.1420 15.2931 7.1250 -0.0000 -0.0000 16.1545 -70.0267 -9.7509
0.00 0.00 0.00 -80.6355 -79.5323 88.2020 0.0000 0.0000 0.0000 -0.8629 -11.8833 -31.4502 1.2252 7.0204 19.7758 0.0154 3.3611 -5.4964 0.4994 -4.5306 -12.5744 0.0000 0.0000 0.0000 37.0268 4.2035 1.1450 -0.5713 -4.8404 13.4538 -0.4641 -6.2851 -16.6937 -0.1636 -2.6056 7.1827 7.6324 1.8821 -2.2538 3.0799 2.3448 -2.7734 -1.0621 1.0190 -1.4262 -7.5268 -4.7136 -11.9982 0.8136 -5.1732 11.1699 1.0316 -2.7972 5.5614 0.0000 0.0000 0.0000 -90.4742 8.3189 19.3726 55.8120 -55.0865 -30.8808 -0.0000 0.0000 -23.4135 23.0202 42.8710 16.1232 -7.1250 0.0000 -0.0000 -25.1683 73.9553 -17.5056 0.0000 0.0000 0.0000 82.1518 3.0687 29.5506 -50.2407 53.0921 -26.3665 0.0000 -0.0000 -13.2178 -23.7322 -36.6055 14.6900 7.1250 -0.0000 -0.0000 14.5039 -68.5240 -8.2520
0.00 0.00 0.00 -96.2943 -80.6049 104.0070 0.0000 0.0000 0.0000 -3.4108 -13.3625 -29.2065 1.1010 6.6673 18.7333 -0.0953 5.6842 -0.4144 0.1032 -2.0718 -5.7042 0.0000 0.0000 0.0000 34.5751 3.5011 2.1083 -2.4540 -9.7539 28.1833 -0.6232 -3.3746 -16.5188 -0.3814 3.9659 -10.9807 5.2274 2.7990 -2.4644 1.1157 3.6185 -2.7468 -1.7157 1.7115 -1.1969 -7.2539 -4.2681 -13.1697 1.6333 -4.6576 13.8236 1.2518 -2.5120 6.5927 -0.0000 0.0000 0.0000 -89.9047 5.1160 22.4651 53.8095 -54.4210 -29.2453 -0.0000 0.0000 -6.2557 16.1773 39.4499 10.4440 -7.1250 0.0000 -0.0000 -27.3973 68.7397 -16.0385 -0.0000 0.0000 0.0000 84.0348 4.7975 34.0045 -38.7076 47.2853 -17.4836 0.0000 -0.0000 -10.7862 -19.4668 -35.8180 11.6870 7.1250 -0.0000 -0.0000 18.8725 -66.4985 -9.9315
0.00 0.00 0.00 -92.9894 -81.7782 99.5530 0.0000 0.0000 0.0000 -6.8702 -11.8394 -26.2384 1.5739 7.9156 22.4579 -0.0081 1.6174 -0.8924 0.0192 0.8955 2.4612 0.0000 0.0000 0.0000 30.9942 0.7411 -4.6326 -5.4189 -13.8406 42.6025 0.1484 -6.9384 -3.9342 -0.1359 2.3757 -6.5452 3.8905 2.6039 -2.1388 0.3350 3.4005 -2.5150 -1.7885 1.6301 -1.1803 -7.2603 -4.3067 -13.6891 1.7927 -4.7259 15.5845 1.2756 -2.5599 7.2598 -0.0000 0.0000 0.0000 -88.6343 3.2028 25.2533 56.5775 -55.3267 -31.5094 -0.0000 -0.0000 1.2900 7.6312 34.7298 4.3650 -7.1250 0.0000 -0.0000 -30.6601 62.3141 -13.5814 -0.0000 0.0000 0.0000 84.4059 3.8391 28.3828 -37.2210 46.3345 -16.3997 0.0000 -0.0000 -11.9750 -19.7258 -38.2342 12.5114 7.1250 -0.0000 -0.0000 21.4904 -68.7884 -12.4702
0.00 0.00 0.00 -83.3012 -84.6322 88.5310 0.0000 0.0000 0.0000 -12.7160 -10.7419 -19.8019 1.4906 7.7128 21.8451 0.0480 -1.0739 -3.9003 0.0532 1.4884 4.0937 0.0000 0.0000 0.0000 25.2123 -1.7360 -14.7761 -9.7923 -17.2914 58.7918 0.6185 -18.0399 5.8535 -0.0753 -1.7700 4.8705 0.8979 1.7919 -1.4032 -0.3179 2.3642 -2.1352 -0.8223 1.1586 -1.3511 -7.1710 -3.9337 -14.2659 1.1805 -4.0895 16.3799 1.1154 -2.3199 7.5783 -0.0000 0.0000 0.0000 -86.2549 1.5603 28.4195 70.8302 -58.5649 -43.4785 -0.0000 -0.0000 10.3588 4.3510 31.5689 2.2811 -7.1250 0.0000 -0.0000 -30.8574 58.8519 -11.1110 -0.0000 0.0000 0.0000 81.8123 3.4433 21.3962 -43.8428 50.1888 -21.3461 0.0000 -0.0000 -10.5695 -23.8745 -38.6644 15.4573 7.1250 -0.0000 -0.0000 16.8551 -70.5126 -10.3630
0.00 0.00 0.00 -56.0412 -84.6663 60.5374 0.0000 0.0000 0.0000 -15.4801 -9.0699 -12.4971 1.0301 6.4557 18.1126 0.1021 -3.3089 -5.7847 0.0516 1.4660 4.0319 0.0000 0.0000 0.0000 22.5890 -3.1736 -25.5320 -12.3575 -18.5377 67.1174 1.3955 -21.2338 -1.5120 -0.4422 -4.2666 11.8280 -0.2442 0.6836 -0.5208 0.0639 0.8948 -2.1435 0.1921 0.4449 -1.9081 -7.0921 -3.6161 -14.0485 0.2488 -3.5278 16.4866 0.8608 -2.1431 7.5359 0.0000 0.0000 0.0000 -83.1932 -2.5165 28.8208 93.2941 -59.9590 -62.8524 -0.0000 -0.0000 14.0434 9.0566 28.9580 4.4130 -7.1250 0.0000 -0.0000 -24.0387 57.5817 -7.7014 0.0000 0.0000 0.0000 77.7155 4.4283 11.3016 -63.9434 57.2723 -37.6409 0.0000 -0.0000 -8.9973 -27.1923 -38.0140 17.5575 7.1250 -0.0000 -0.0000 11.5129 -70.9893 -7.1648
0.00 0.00 0.00 -40.7530 -84.6642 45.3758 0.0000 0.0000 0.0000 -17.2739 -7.5331 -7.3667 0.6565 5.1823 14.4293 0.1428 -4.1675 -6.8909 0.0566 1.5349 4.2220 0.0000 0.0000 0.0000 20.3546 -1.7891 -31.6509 -11.3408 -18.0978 63.8834 0.9733 -17.1515 -6.1395 -0.2707 -3.3465 9.2450 -0.9981 0.1979 -0.1643 0.1875 0.2346 -2.4831 0.7472 0.1316 -2.4584 -7.2990 -3.7087 -13.4971 0.1254 -3.6473 16.6281 0.8480 -2.2340 7.4937 0.0000 -0.0000 0.0000 -81.1199 -7.7972 27.2786 106.7494 -58.9130 -74.4525 -0.0000 -0.0000 16.0290 16.8352 25.1680 7.3327 -7.1250 0.0000 -0.0000 -13.7831 55.5932 -3.6332 0.0000 -0.0000 0.0000 74.4662 7.1055 4.3955 -85.8453 59.9347 -56.4027 0.0000 -0.0000 -6.4895 -30.1210 -35.2369 18.5072 7.1250 -0.0000 -0.0000 4.5503 -69.1676 -2.6366
0.00 0.00 0.00 -29.6852 -84.8360 34.7438 0.0000 0.0000 0.0000 -18.5977 -6.2335 -4.0254 0.4756 4.4228 12.2692 0.2069 -4.8345 -8.2634 0.0453 1.3737 3.7778 0.0000 0.0000 0.0000 18.5458 -0.2663 -35.2095 -8.8181 -16.6892 55.4589 0.8832 -16.8254 -10.5143 -0.1973 -2.8602 7.8897 -1.6644 -0.1294 -0.0223 0.1766 -0.2194 -2.7273 1.1195 -0.0784 -2.7795 -7.4706 -4.0153 -12.9358 0.1094 -4.0836 16.3017 0.8357 -2.4496 7.3093 0.0000 -0.0000 0.0000 -79.9975 -13.6298 25.7746 114.0487 -57.6978 -80.6658 -0.0000 -0.0000 17.8800 21.5511 21.0843 8.0862 -7.1250 0.0000 -0.0000 -7.2951 52.3504 -1.3257 0.0000 -0.0000 0.0000 72.1645 12.0072 0.6210 -103.7999 59.2680 -71.9217 0.0000 -0.0000 -3.9296 -30.7717 -31.6692 17.3603 7.1250 -0.0000 -0.0000 1.2458 -65.6521 -0.6214
0.00 0.00 0.00 -20.4390 -85.0677 26.4096 0.0000 0.0000 0.0000 -19.6224 -5.0285 -1.3734 0.3875 3.9972 11.0687 0.3129 -5.5914 -10.1066 0.0226 0.9701 2.6666 0.0000 0.0000 0.0000 17.2795 0.8242 -36.8931 -4.7430 -13.0883 39.7001 0.9156 -17.3434 -11.7286 -0.2533 -3.2385 8.9435 -2.1897 -0.4364 -0.2710 0.2517 -0.6348 -2.8614 1.4993 -0.2732 -2.7596 -7.8250 -4.4898 -12.4847 0.1653 -4.7100 15.4895 0.8612 -2.7461 7.0020 -0.0000 -0.0000 0.0000 -80.0729 -21.4910 26.2281 118.0318 -56.8120 -84.0164 -0.0000 -0.0000 20.7817 25.8260 18.5275 8.7430 -7.1250 0.0000 -0.0000 -2.3220 50.3866 -0.3084 -0.0000 -0.0000 0.0000 69.4265 19.2553 1.4201 -118.8599 56.6062 -84.7087 0.0000 -0.0000 -0.8117 -31.6426 -26.9792 15.6191 7.1250 -0.0000 -0.0000 -1.8350 -60.8484 0.7088
